<svg xmlns="http://www.w3.org/2000/svg" width="245" height="29" viewBox="0 0 245 29">
    <g fill="none" fill-rule="evenodd">
        <path fill="#050505" d="M31.187 21.146h8.83c5.56 0 10.856-3.225 10.88-10.018.063-6.34-4.474-9.933-11.302-9.903l-8.408-.03v.602l2.029.478v17.77l-2.03.502v.6zm5.748-1.101V2.298h2.804c4.182 0 7.047 3.147 7.02 8.83 0 5.592-2.838 8.917-6.956 8.917h-2.868zM56.43 13.674h8.89c-.086-3.685-2.024-5.982-5.928-5.982-3.838 0-6.677 3.289-6.677 6.88 0 4.155 2.75 6.88 6.709 6.88 3.386 0 5.137-1.315 6.165-2.068l-.569-.897c-.79.482-2.354 1.531-4.96 1.376-2.597-.176-3.9-2.87-3.63-6.19m5.506-1.05h-5.355c.3-2.267 1.21-3.943 2.811-3.943 1.816 0 2.423 2.092 2.544 3.944M75.313 1.797v-.602h6.576v.568l-1.98.477-7.559 19.093h-1.42L64.794 2.24l-2.156-.477v-.568h8.354v.602l-2.507.5 4.35 14.482 5.234-14.481zM88.374 7.691c1.268 0 1.813.477 2.356.927l-1.088 2.39c-.45-.301-.906-.538-1.749-.538-1.21.033-2.18.837-2.87 1.709v7.839l2.932.48v.648h-8.408v-.565l2.023-.476V9.095l-2.023-.513V8.05l5.046-.36.248 3.437c.574-1.11 1.99-3.437 3.533-3.437M94.666 28.324c-1.424 0-2.238-.531-2.849-.918l1.18-2.514c.693.413 1.334.657 2.092.657 1.598 0 2.23-.989 2.78-2.01l.787-1.819-5.659-12.952-1.436-.245v-.535h7.15v.535l-1.963.509 3.63 8.464 3.17-8.52-1.87-.453v-.535h5.12v.508l-1.734.536-6.442 15.44c-.602 1.314-1.844 3.852-3.956 3.852M131.499 2.434l-2.895-.567v-.621h6.835v.594l-2.06.594-.333 12.399c-.178 4.662-3.671 6.497-8.2 6.497-5.224 0-7.671-1.924-7.671-6.497V2.339l-2-.5v-.593h8.594v.653l-2.924.497v12.256c0 3.69 1.337 5.311 4.988 5.311 3.72 0 5.903-1.973 5.873-5.813l-.207-11.716zM143.253 20.386v.555h-7.25v-.555l1.974-.474V8.98l-1.975-.502V7.92l5.185-.263.156 2.158c.594-.506 2.51-2.158 4.922-2.158 2.507 0 3.788 1.385 3.788 3.81v8.404l1.905.479v.591h-7.032v-.591l1.757-.438v-8.064c0-1.27-.387-2.391-2.002-2.391-1.428 0-2.892 1.002-3.307 1.266v9.19l1.88.473zM159.093 3.107c0 1.006-.892 1.829-1.972 1.829-1.04 0-1.968-.823-1.968-1.83 0-1.001.928-1.86 1.968-1.86 1.08 0 1.972.859 1.972 1.86zm1.791 17.28v.554h-7.368v-.555l2-.474V9.072l-2-.504v-.53l5.399-.38v12.254l1.97.474zM162.493 8.865l-.948-.388v-.526h6.44v.526l-2.053.503 2.887 7.856 2.892-7.908-1.783-.45V7.95h4.407v.526l-1.077.503-5.005 12.167h-1.105zM177.977 13.56h8.777c-.09-3.634-1.997-5.903-5.854-5.903-3.79 0-6.591 3.245-6.591 6.789 0 4.107 2.716 6.787 6.618 6.787 3.35 0 5.077-1.3 6.093-2.035l-.564-.887c-.776.474-2.326 1.503-4.896 1.357-2.565-.174-3.849-2.83-3.583-6.107m5.43-1.032h-5.28c.299-2.249 1.2-3.902 2.773-3.902 1.793 0 2.385 2.07 2.507 3.902M197.216 7.657c1.253 0 1.794.468 2.33.91l-1.077 2.368c-.447-.298-.888-.532-1.729-.532-1.2.03-2.153.826-2.833 1.68v7.73l2.886.479v.649h-8.287v-.555l1.993-.473V9.042l-1.993-.505v-.528l4.981-.352.237 3.39c.564-1.083 1.97-3.39 3.492-3.39M209.808 8.334l-.306 3.223h-1.214l-.309-2.188c-.444-.236-1.041-.742-2.354-.742-1.072 0-1.902.568-1.902 1.713 0 1.36 1.516 1.894 3.045 2.572 1.453.614 3.843 1.503 3.843 3.837 0 2.657-2.206 4.484-4.864 4.484-2.443 0-3.881-.557-4.3-.71l-.235-3.57 1.252-.117.723 2.421c.354.262 1.34 1.035 2.527 1.005 1.702 0 2.507-.886 2.507-2.15 0-1.513-2.116-2.165-3.516-2.811-1.32-.618-3.344-1.18-3.344-3.87 0-2.21 1.852-3.774 4.353-3.774 2.156 0 3.494.497 4.094.677M217.761 3.107c0 1.006-.893 1.829-1.972 1.829-1.045 0-1.968-.823-1.968-1.83 0-1.001.923-1.86 1.968-1.86 1.08 0 1.972.859 1.972 1.86zm1.791 17.28v.554h-7.373v-.555l2.002-.474V9.072l-2.002-.504v-.53l5.404-.38v12.254l1.97.474zM226.326 21.233c-2.778 0-3.198-1.092-3.198-3.6V9.1l-2.84-.496v-.653h2.872l1.911-5.345h1.372l.12 5.345h3.37v.653l-3.4.496v8.272c0 1.797.21 2.296 1.672 2.542.742.114 1.613.114 2.35.075l.12.723c-.827.23-2.174.521-4.35.521M233.872 28.027c-1.395 0-2.206-.532-2.802-.916l1.162-2.484c.68.417 1.32.652 2.055.652 1.587 0 2.215-.977 2.748-1.979l.777-1.796-5.58-12.782-.984-.245v-.526h6.627v.526l-1.937.503 3.576 8.359 3.124-8.41-1.841-.452v-.526h4.178v.505l-.834.524-6.361 15.239c-.595 1.297-1.819 3.808-3.908 3.808"/>
        <path fill="#FEC221" d="M11.858 11.566v13.713l-9.9-21.877 9.9 8.164zm-.677 14.644c-1.417-.953-5.57-3.73-6.367-4.272-1.447-.974-2.018-1.647-2.303-4.843-.065-.71-.348-3.838-.64-7.102l-.49-5.449 9.8 21.666zm1.674-15.933V2.152h9.859l-9.86 8.125zm0 15.002V11.566l9.9-8.164-9.9 21.877zm.672.93L23.33 4.548c-.225 2.474-.542 6.024-.79 8.742l-.345 3.806c-.278 3.192-.853 3.87-2.296 4.843-.799.541-4.954 3.32-6.372 4.272zm-1.67-25.045l.001 9.113L0 .456l1.516 16.727c.153 1.736.384 2.771.794 3.58.444.865 1.07 1.404 1.937 1.996l8.107 5.424s6.915-4.633 8.11-5.424c1.814-1.239 2.422-2.162 2.726-5.576.136-1.468 1.45-16.02 1.45-16.02H11.858z"/>
    </g>
</svg>
